<svg width="90" height="64" viewBox="0 0 90 64" fill="none" xmlns="http://www.w3.org/2000/svg">
<g clip-path="url(#clip0_3460_253312)">
<path d="M76.5685 21.3554H88.696C83.0622 8.91921 67.8146 0 50.8582 0C19.2827 0 12.2708 26.8458 0 31.9724C12.2708 37.1211 19.2827 63.9449 50.8582 63.9449C67.8146 63.9449 83.0622 55.0367 88.7511 42.5895H76.6236C71.6624 49.6124 61.9604 54.3311 50.8582 54.3311C34.7066 54.3311 21.609 44.3314 21.609 31.9724C21.609 19.6134 34.7066 9.66891 50.8582 9.66891C61.9604 9.66891 71.6624 14.3986 76.5685 21.3554Z" fill="#B3A369"/>
<path d="M37.3306 43.3503H44.6512L46.2167 38.8521H55.4887L57.0543 43.3503H64.3859L54.4634 17.4526H47.2861L37.3306 43.3503ZM50.8582 25.5229L53.7027 33.7035H48.0138L50.8582 25.5229Z" fill="#B3A369"/>
<path d="M80.2067 57.5503V56.1281H80.7029V55.9517H79.5563V56.1281H80.0303V57.5503H80.2067Z" fill="#B3A369"/>
<path d="M82.3014 57.5503V55.9517H82.0258L81.6179 57.2526L81.21 55.9517H80.9343V57.5503H81.0997V56.1942L81.5297 57.5503H81.7061L82.136 56.1942V57.5503H82.3014Z" fill="#B3A369"/>
</g>
<defs>
<clipPath id="clip0_3460_253312">
<rect width="88.7511" height="64" fill="white"/>
</clipPath>
</defs>
</svg>
